<?xml version="1.0" encoding="UTF-8" standalone="no"?>
<!-- Created with Inkscape (http://www.inkscape.org/) -->
<svg xmlns:dc="http://purl.org/dc/elements/1.1/" xmlns:cc="http://creativecommons.org/ns#" xmlns:rdf="http://www.w3.org/1999/02/22-rdf-syntax-ns#" xmlns:svg="http://www.w3.org/2000/svg" xmlns="http://www.w3.org/2000/svg" xmlns:sodipodi="http://sodipodi.sourceforge.net/DTD/sodipodi-0.dtd" xmlns:inkscape="http://www.inkscape.org/namespaces/inkscape" id="svg2" version="1.1" inkscape:version="0.91 r13725" width="157.99994" height="44.575916" viewBox="0 0 157.99994 44.575916" sodipodi:docname="eina.svg">
  <metadata id="metadata8">
    <rdf:RDF>
      <cc:Work rdf:about="">
        <dc:format>image/svg+xml</dc:format>
        <dc:type rdf:resource="http://purl.org/dc/dcmitype/StillImage"/>
        <dc:title/>
      </cc:Work>
    </rdf:RDF>
  </metadata>
  <defs id="defs6"/>
  <sodipodi:namedview pagecolor="#ffffff" bordercolor="#666666" borderopacity="1" objecttolerance="10" gridtolerance="10" guidetolerance="10" inkscape:pageopacity="0" inkscape:pageshadow="2" inkscape:window-width="1305" inkscape:window-height="744" id="namedview4" showgrid="false" fit-margin-top="5" fit-margin-right="5" fit-margin-bottom="5" fit-margin-left="5" inkscape:zoom="4" inkscape:cx="59.510075" inkscape:cy="40.120543" inkscape:window-x="1207" inkscape:window-y="24" inkscape:window-maximized="1" inkscape:current-layer="svg2"/>
  <path style="fill:#fbd289" d="m 29.465452,5 -1.866426,1.04251 c -2.4314,1.372205 -2.317132,1.267233 -1.614209,1.328359 3.348662,0.289868 10.132214,0.904601 10.408273,0.94162 l 0.353111,0.05079 0,6.187792 c 0,4.897047 -0.01867,6.187381 -0.10089,6.187793 -0.05716,2.58e-4 -0.615318,-0.06887 -1.244285,-0.168134 l -1.143397,-0.184925 0,-5.061214 0,-5.061216 -0.184958,-0.03358 c -4.262863,-0.52997 -6.388545,-0.791179 -11.61893,-1.42969 -0.04321,-0.03875 -5.965409,2.938821 -6.019648,3.026635 -0.02479,0.04047 0.61916,0.16693 6.249981,0.88561 5.630822,0.718687 6.982433,0.880177 7.016784,0.879927 0.03435,-2.15e-4 0.06723,3.163278 0.06723,7.028524 0,4.562015 -0.0309,7.028533 -0.0841,7.028533 -0.102945,0 -2.218707,-0.332485 -2.471755,-0.386723 l -0.184958,-0.03358 0,-5.548834 c -7.74e-4,-3.140136 -0.04175,-5.599387 -0.08412,-5.666537 -4.648106,-0.862703 -8.341142,-1.284411 -14.410067,-2.135542 l -3.7832928,2.034587 c -2.0796952,1.11815 -3.7666283,2.034177 -3.7496684,2.051394 6.2577212,1.199593 7.6291672,1.430188 15.1163762,2.80804 l 0,8.222374 c 0,7.307821 -0.0049,8.222365 -0.117706,8.222365 -0.06973,0 -1.082475,-0.19422 -2.236348,-0.420381 -6.139998,-1.203278 -11.2210252,-2.163873 -11.2490048,-2.135463 -0.017391,0.01722 0.8860007,0.267484 2.0177586,0.554856 4.5962222,1.167171 8.6816282,2.208502 12.4260312,3.177973 l 3.951444,1.025688 2.370865,0.03358 c 1.303663,0.02496 2.364763,0.05767 2.370867,0.06714 0.0061,0.0096 0.401314,-0.574312 0.874362,-1.294733 3.347628,-5.098344 4.224013,-6.459056 4.170035,-6.507267 -0.03384,-0.03013 -0.472079,-0.110895 -0.975252,-0.18501 L 29.953082,30.97842 c -1.565203,-0.229776 -2.867757,-0.420382 -2.892122,-0.420382 -0.02436,0 -0.03366,-0.558128 -0.03366,-1.244282 0,-0.686146 0.0144,-1.244283 0.03366,-1.244283 0.01929,0 1.501725,0.289782 3.295674,0.655755 l 3.262042,0.67263 1.345173,0 1.345172,0 1.715095,-2.606277 c 1.393258,-2.122764 1.675044,-2.609368 1.563763,-2.656708 -0.07491,-0.03186 -1.174148,-0.216348 -2.45494,-0.403595 -1.280791,-0.187249 -2.457609,-0.360894 -2.606271,-0.386722 l -0.269035,-0.03358 0,-1.025688 0,-1.025697 0.605323,0.11769 c 0.33163,0.05853 1.526937,0.277986 2.656716,0.487619 1.421443,0.263611 2.279747,0.369934 2.774413,0.369934 l 0.706205,0 1.294723,-1.950498 c 0.710251,-1.079305 1.275739,-1.972939 1.261105,-1.984131 -0.02497,-0.01894 -2.04616,-0.263008 -2.942566,-0.353059 -0.228743,-0.02325 -0.485588,-0.0637 -0.588509,-0.08437 l -0.201772,-0.03358 0,-5.901943 0,-5.901945 -0.269035,-0.03358 C 36.253202,5.622381 33.546765,5.387207 29.465461,5.000013 Z M 6.2107832,34.576979 c -0.066291,0.02583 -0.046403,0.04649 0.050449,0.05079 0.087631,0.0034 0.1453395,-0.02325 0.1177036,-0.05079 -0.027636,-0.02754 -0.1081396,-0.02411 -0.1681445,0 z" id="path3363" inkscape:connector-curvature="0" sodipodi:nodetypes="cccccsccccccccccssccccccccssccsccccccccssscccccccccccccscccccccccccccc"/>
  <path style="fill:#edab04" d="m 29.482265,5.03363 -1.933682,1.092955 c -1.069398,0.601348 -1.920263,1.111539 -1.883243,1.143394 0.03702,0.03186 2.519068,0.276524 5.515207,0.538069 2.996139,0.261544 5.49167,0.485466 5.548836,0.504406 0.08196,0.02669 0.10089,1.345173 0.10089,6.238236 l 0,6.221419 1.496504,-1.446054 1.496503,-1.446063 0,-5.935571 C 39.82878,6.208588 39.822547,6.025663 39.671949,6.025663 36.158125,5.702192 34.067158,5.487282 29.482264,5.03363 Z m -7.095782,3.800115 -2.925751,1.479689 c -1.611025,0.807276 -2.898093,1.494833 -2.85849,1.530131 0.0396,0.0353 2.951463,0.414872 6.473641,0.857553 3.522179,0.442766 6.488458,0.835168 6.591345,0.857553 l 0.184957,0.03358 0,7.011711 0,6.994895 0.857546,-0.823892 c 0.468859,-0.456367 1.4594,-1.437573 2.202719,-2.169088 l 1.345173,-1.32836 0,-6.507267 c 0,-5.151661 -0.01858,-6.507286 -0.100889,-6.507277 C 30.001065,9.786501 26.841343,9.383147 22.386484,8.833749 Z m -9.836575,5.078028 -3.7664829,2.017749 c -2.0652094,1.108793 -3.7088121,2.021669 -3.6655944,2.034581 14.8137103,2.740786 9.2930373,1.72004 14.8137103,2.740786 l 0.18496,0.05079 0,8.138298 c 0,4.481899 0.03425,8.155111 0.06723,8.155111 0.03297,-9e-6 0.8753,-0.821051 1.883241,-1.815987 1.007944,-0.994904 2.511611,-2.475229 3.346118,-3.295668 l 1.530133,-1.496512 0,-7.247118 0,-7.247108 c -4.79706,-0.683343 -9.595302,-1.358349 -14.39332,-2.034921 z" id="path3361" inkscape:connector-curvature="0" sodipodi:nodetypes="cccscscccccccccccccccccscccccccscsccccc"/>
  <path style="fill:#015192" d="m 53.696314,29.634413 0.03358,2.808048 c 0.02842,2.648006 0.04821,2.839851 0.218587,3.262041 0.378369,0.938549 0.850321,1.392325 1.748724,1.647844 0.929421,0.264384 2.3112,-0.0012 2.959378,-0.571731 0.850752,-0.748821 0.958434,-1.267802 0.958434,-4.573586 l 0,-2.572641 -0.82389,0 -0.840767,0 0,2.690345 c -0.0016,2.429695 -0.01215,2.708509 -0.151346,3.009827 -0.473329,1.025259 -1.723139,1.073642 -2.219539,0.08437 -0.154361,-0.307948 -0.16168,-0.531009 -0.184924,-3.060261 l -0.01722,-2.723981 -0.840764,0 z m 35.327594,0.03358 c -0.973948,-0.158065 -1.454507,1.069318 -0.588519,1.496503 0.689591,0.340144 1.398249,-0.160215 1.261106,-0.89118 -0.0663,-0.352974 -0.287715,-0.54246 -0.67263,-0.605306 z m 5.111657,0.05079 0,1.395612 c 0,1.324736 -0.0096,1.372904 -0.151349,1.244292 -0.4896,-0.443111 -1.55031,-0.518353 -2.253157,-0.168137 -1.916198,0.954888 -1.777788,4.440113 0.201797,5.145284 0.696303,0.248028 1.56202,0.06887 2.034572,-0.420382 l 0.285824,-0.302697 0.05079,0.319483 0.03358,0.319485 0.739866,0.01722 0.722993,0.03358 0,-3.783297 0,-3.80011 -0.840763,0 z m 11.484405,0 0,1.3788 0,1.378799 -0.35315,-0.235372 c -0.7842,-0.518957 -2.07091,-0.307001 -2.74078,0.453957 -0.52473,0.59618 -0.67771,1.143582 -0.63897,2.185903 0.0508,1.361212 0.59119,2.184009 1.64784,2.505386 0.61323,0.186475 1.35547,0.0129 1.86642,-0.437168 l 0.36994,-0.336274 0,0.336274 0,0.336271 0.77343,0 0.75667,0 -0.0508,-0.43717 c -0.0293,-0.240109 -0.0508,-1.942154 -0.0508,-3.783297 l 0,-3.346118 -0.79032,0 z m -38.589635,0.03358 c -0.590155,0.305194 -0.496746,1.259581 0.151349,1.496503 0.340575,0.124485 0.925132,-0.07059 1.076136,-0.353058 0.415562,-0.77637 -0.422189,-1.559825 -1.227468,-1.143403 z m 9.769318,2.21954 c -0.648868,0.01807 -1.300173,0.25767 -1.748724,0.706205 -1.05595,1.055939 -1.059265,3.189534 0,4.119584 0.356848,0.313286 0.742621,0.490289 1.277911,0.588519 0.669528,0.12285 2.42824,-0.06285 2.555825,-0.269036 0.02842,-0.04478 0.0037,-0.318709 -0.05079,-0.605305 l -0.10089,-0.521281 -0.420381,0.100889 c -1.164649,0.302094 -2.471751,-0.06714 -2.471751,-0.706206 0,-0.169081 0.03788,-0.168134 1.664648,-0.168134 l 1.647834,0 0.06714,-0.218585 c 0.164517,-0.655492 -0.209205,-1.924301 -0.706208,-2.421305 -0.424601,-0.4246 -1.066212,-0.623125 -1.715098,-0.605305 z m 5.986014,0 c -0.546938,0 -1.079866,0.325338 -1.361988,0.857553 -0.06801,0.1275 -0.08721,0.07834 -0.134565,-0.302697 l -0.05079,-0.470832 -0.723078,0 c -0.696649,0 -0.704827,0.0016 -0.655755,0.185008 0.02754,0.10287 0.04994,1.285109 0.05079,2.623083 l 0,2.421311 0.790316,0 0.773441,0 0.03358,-1.530131 c 0.02754,-1.39093 0.04563,-1.553065 0.201799,-1.765538 0.256465,-0.3497 0.674264,-0.546592 1.092951,-0.504407 l 0.353144,0.05079 0,-0.790316 0,-0.773442 z m -19.15189,0.01722 c -0.553651,0.0198 -1.068665,0.240194 -1.328358,0.638967 L 62.15407,32.829888 62.12049,32.459953 62.0697,32.09002 61.329833,32.0728 l -0.739866,-0.03358 0.05079,0.269035 c 0.02927,0.14481 0.06714,1.325138 0.06714,2.623091 l 0,2.354048 0.773442,0 0.790315,0 0.01722,-1.631023 c 0.03358,-2.021924 0.173129,-2.354054 0.958434,-2.354054 0.669959,0 0.773441,0.339285 0.773441,2.370869 l 0,1.614208 0.840766,0 0.840763,0 -0.03358,-1.933681 c -0.03444,-2.103681 -0.06801,-2.323729 -0.538069,-2.824864 -0.353403,-0.376908 -0.942852,-0.557869 -1.496503,-0.538069 z m 34.907225,0 c -0.71121,0.03702 -1.748729,0.307516 -1.748729,0.453957 0,0.05166 0.263439,0.964521 0.285822,0.99207 0.0085,0.01035 0.221947,-0.05682 0.470837,-0.151348 0.88935,-0.338939 1.72583,-0.196889 1.91686,0.319485 0.0611,0.165381 0.0173,0.178724 -0.7062,0.269033 -1.56071,0.194825 -2.28954,0.813646 -2.286794,1.916868 0.0019,0.750974 0.220479,1.140441 0.823894,1.446063 0.67573,0.342299 1.39009,0.285994 2.03457,-0.151347 0.37536,-0.254657 0.36993,-0.255862 0.36993,0 0,0.205929 0.019,0.201711 0.739868,0.201796 l 0.72299,0 -0.0336,-1.799164 c -0.0284,-1.926631 -0.0714,-2.247579 -0.36994,-2.690346 -0.42787,-0.634921 -1.056928,-0.867366 -2.219528,-0.807103 z m -31.846956,0.06714 0,2.62309 0,2.60627 0.790317,0 0.790314,0 0,-2.60627 0,-2.62309 -0.790314,0 z m 5.834683,0 -0.336271,1.227469 c -0.186217,0.674695 -0.417887,1.506542 -0.504408,1.849615 l -0.151349,0.62218 -0.10089,-0.454044 c -0.05424,-0.251551 -0.26757,-1.078026 -0.487619,-1.832787 l -0.403509,-1.3788 -0.891172,-0.01722 c -0.724714,-0.01893 -0.896749,-0.0085 -0.874367,0.08437 0.01549,0.06285 0.438376,1.243834 0.941621,2.62309 l 0.924807,2.505378 0.840765,0 0.840767,0 0.924797,-2.505378 c 0.515082,-1.383724 0.970549,-2.56627 0.99207,-2.62309 0.03013,-0.0792 -0.177261,-0.10089 -0.840764,-0.10089 z m 13.989793,0 c -1.539342,-0.31957 -2.826851,0.270498 -2.993006,1.378809 -0.11967,0.798149 0.337734,1.40157 1.361985,1.782351 0.684337,0.2544 0.840765,0.379404 0.840765,0.655756 0,0.461877 -0.861996,0.554856 -1.698283,0.184923 l -0.35306,-0.168136 -0.134565,0.538069 c -0.07318,0.290816 -0.134565,0.563121 -0.134565,0.605307 0,0.0978 0.344277,0.235716 0.82389,0.336272 0.515687,0.108045 1.664063,0.04391 2.051387,-0.117675 0.684079,-0.285737 1.026523,-0.791264 1.025697,-1.513318 -5.17e-4,-0.792985 -0.362099,-1.229009 -1.412435,-1.647843 -0.635612,-0.253451 -0.868634,-0.44397 -0.790316,-0.689416 0.09634,-0.303643 0.718258,-0.378456 1.361993,-0.151348 0.391889,0.138255 0.367352,0.146955 0.50441,-0.43717 0.136889,-0.583354 0.10227,-0.641208 -0.453959,-0.756654 z m 1.546943,0 0,2.62309 0,2.60627 0.790316,0 0.790317,0 0,-2.60627 0,-2.62309 -0.790317,0 z m -11.265812,0.99207 c 0.408933,0 0.874358,0.439065 0.874358,0.823891 l 0,0.252248 -0.924807,0 -0.907985,0 0,-0.218586 c 0,-0.349959 0.571472,-0.857553 0.958434,-0.857553 z m 27.676917,0.168136 c 0.23718,-0.04649 0.50139,0.0063 0.73987,0.218587 0.52817,0.470056 0.5502,1.952828 0.0336,2.438123 -0.47729,0.448362 -1.34448,0.244239 -1.61421,-0.386722 -0.43037,-1.007006 0.12932,-2.129573 0.84077,-2.269979 z m -11.114482,0.03358 c 0.210149,0.06285 0.416335,0.217896 0.588518,0.470833 0.180016,0.265073 0.198268,0.346429 0.168136,1.059324 -0.03272,0.77611 -0.03099,0.779898 -0.336271,1.059315 -0.771031,0.706636 -1.731912,0.0663 -1.731912,-1.160206 0,-1.022349 0.681066,-1.618795 1.311545,-1.429248 z m 5.901954,1.631021 c 0.26894,-4.31e-4 0.26902,0.0081 0.26902,0.420382 0,0.335238 -0.0336,0.450602 -0.21858,0.655755 -0.32886,0.364854 -0.77431,0.419608 -1.05933,0.134565 -0.53496,-0.53497 0.0284,-1.208975 1.00889,-1.210656 z" id="path3359" inkscape:connector-curvature="0" sodipodi:nodetypes="ccccsscccccccccccccccscccccccccccccccccccccccccccscccsccsssssccccssccssscccscccccccccccsscccccccsccccsscccccscscccccccscccccccccccccccccccccccccccccsccccscccscccccscccccccccccsscccsscccccsccssscsccc"/>
  <path inkscape:connector-curvature="0" id="path3357" d="m 132.82039,39.537121 c -0.76174,-0.11484 -1.19273,-0.316728 -1.127,-0.527911 0.15694,-0.504235 0.20196,-0.570353 0.34661,-0.508969 0.78307,0.332138 1.78466,0.41272 2.23285,0.179586 0.57492,-0.298995 0.864,-0.861317 0.864,-1.680696 l 0,-0.54728 -0.30467,0.295894 c -1.05651,1.026058 -2.87638,0.498812 -3.43378,-0.994833 -0.24665,-0.660921 -0.21541,-1.779726 0.0672,-2.411883 0.64094,-1.432995 2.42142,-1.917429 3.45021,-0.938754 0.40826,0.38827 0.38725,0.39154 0.38725,-0.0594 l 0,-0.374238 0.41582,0 0.41583,0 -8.5e-4,2.432675 c -8.2e-4,3.244985 -0.13654,3.981254 -0.8455,4.588118 -0.53031,0.453958 -1.56575,0.683648 -2.46833,0.547539 z m 1.57124,-3.185609 c 0.57415,-0.303645 0.74521,-0.711973 0.74521,-1.779339 0,-0.696046 -0.0319,-0.926004 -0.16443,-1.185852 -0.53644,-1.051466 -2.00337,-0.993337 -2.52765,0.100124 -0.8548,1.78272 0.42692,3.66882 1.94687,2.865066 z m -16.95434,1.010037 c -0.76999,-0.1356 -1.26483,-0.71998 -1.26102,-1.489341 0.006,-1.103439 0.90629,-1.790729 2.47244,-1.886366 l 0.68614,-0.04218 0,-0.247252 c 0,-0.360981 -0.23736,-0.802457 -0.50613,-0.94144 -0.34556,-0.178726 -1.28345,-0.154535 -1.72174,0.04478 l -0.35659,0.161854 -0.0827,-0.225991 c -0.0457,-0.124319 -0.0982,-0.270841 -0.11742,-0.325596 -0.11346,-0.324477 1.70862,-0.631048 2.45721,-0.413494 1.06839,0.310615 1.25616,0.794102 1.30551,3.36157 l 0.037,1.933663 -0.414,0 -0.41401,0 -0.0568,-0.353488 c -0.0465,-0.28694 -0.0723,-0.326371 -0.13859,-0.209546 -0.2315,0.409363 -1.24026,0.74727 -1.88934,0.633028 z m 1.23878,-0.821912 c 0.51319,-0.261801 0.66617,-0.579392 0.63948,-1.327343 l -0.0224,-0.623728 -0.45742,0.02669 c -1.26897,0.07404 -1.93124,0.658595 -1.66388,1.468755 0.19964,0.604877 0.83465,0.797204 1.50419,0.455594 z m 8.31025,0.853248 c -0.82733,-0.10926 -1.41505,-0.735818 -1.4134,-1.506825 0.002,-1.084729 0.93343,-1.799888 2.4738,-1.900072 l 0.68614,-0.04478 0,-0.283498 c 0,-0.389906 -0.2018,-0.74529 -0.51525,-0.907416 -0.33308,-0.172268 -1.39686,-0.12672 -1.78652,0.07662 l -0.26421,0.137745 -0.0953,-0.288407 c -0.12178,-0.368899 -0.0886,-0.414182 0.43743,-0.595662 1.24775,-0.430543 2.48554,-0.109514 2.93047,0.760011 l 0.24975,0.488051 0.0412,1.981531 0.0413,1.98153 -0.43666,-1.7e-4 -0.43665,-1.66e-4 0,-0.291072 c 0,-0.329127 -0.0748,-0.363477 -0.28573,-0.130695 -0.28763,0.317849 -1.13014,0.588691 -1.62712,0.523089 z m 1.29443,-0.973034 c 0.40205,-0.306657 0.54883,-0.679862 0.51826,-1.317908 l -0.0249,-0.513361 -0.49898,0.02669 c -1.15457,0.06112 -1.70496,0.433639 -1.70496,1.152499 0,0.903682 0.92038,1.254648 1.71028,0.65214 z m 11.44837,0.937394 c -1.30882,-0.193964 -2.05618,-1.170615 -2.05506,-2.685508 0.001,-1.766691 1.18727,-2.931451 2.81393,-2.763565 1.47629,0.152382 2.25874,1.095276 2.25874,2.721974 0,1.877688 -1.23265,2.991672 -3.01761,2.727099 z m 0.95378,-0.736339 c 1.38581,-0.523605 1.50643,-3.177654 0.17588,-3.869936 -0.35944,-0.186991 -1.07353,-0.15023 -1.40372,0.07231 -1.68648,1.136513 -0.60246,4.489224 1.22784,3.797621 z m 9.41633,0.755021 c -0.75794,-0.13689 -1.23587,-0.7081 -1.23826,-1.480105 -0.003,-1.138277 0.86872,-1.811992 2.47288,-1.909955 l 0.68615,-0.04218 0,-0.247253 c 0,-0.355555 -0.21446,-0.756483 -0.49244,-0.920641 -0.34084,-0.201281 -1.26763,-0.188711 -1.73544,0.02325 l -0.35659,0.161853 -0.0827,-0.22599 c -0.0458,-0.12432 -0.0982,-0.270842 -0.11746,-0.325596 -0.05,-0.141795 0.79988,-0.440615 1.41615,-0.498123 1.07778,-0.100635 1.89581,0.327231 2.14645,1.122714 0.0876,0.277815 0.13425,0.945356 0.16237,2.32352 l 0.0396,1.933664 -0.39964,0 -0.39963,0 -0.0569,-0.336099 -0.0569,-0.336101 -0.22084,0.22358 c -0.40892,0.414011 -1.16435,0.641893 -1.76731,0.532989 z M 151.32102,36.551 c 0.5038,-0.22883 0.69897,-0.59816 0.69897,-1.322805 0,-0.699919 0.0292,-0.675814 -0.72826,-0.59179 -1.0455,0.115889 -1.60022,0.606082 -1.48767,1.314619 0.1056,0.665225 0.78326,0.933201 1.51696,0.599969 z m -42.13271,0.450516 c 0,-0.254485 0.289,-0.654895 2.35651,-3.264358 l 2.35652,-2.974325 -2.35652,-0.02238 -2.35651,-0.0224 0,-0.414528 0,-0.414527 2.99406,0 2.99405,0 -0.006,0.311906 c -0.006,0.279882 -0.24726,0.615122 -2.35438,3.264358 l -2.34832,2.952475 2.35438,0.02239 2.35439,0.02237 0,0.414529 0,0.414528 -2.99406,0 -2.99405,0 z m 12.97425,-2.288188 0,-2.640592 c 0,-0.03444 0.17779,-0.06198 0.39508,-0.06198 l 0.39506,0 0.0249,0.479184 0.0249,0.479183 0.26611,-0.346689 c 0.37337,-0.486414 0.64499,-0.664881 1.08831,-0.714815 l 0.38379,-0.04305 0,0.468249 0,0.468249 -0.32035,0 c -0.3498,0 -0.77026,0.23916 -1.02453,0.582576 -0.22649,0.306054 -0.3174,1.037018 -0.31802,2.556975 l -4.7e-4,1.351488 -0.4574,0 -0.45741,0 0,-2.578219 z m 21.45743,2.321651 c 0,-0.202571 0.25681,-0.591788 1.22089,-1.850501 1.19082,-1.554675 1.36514,-1.813446 1.47854,-2.194865 l 0.0551,-0.185095 -1.39803,-0.02238 -1.39802,-0.02325 0,-0.374239 0,-0.374237 2.01683,-0.02238 2.01682,-0.02238 0,0.300199 c 0,0.29667 -1.32894,2.409618 -2.38926,3.798803 l -0.36502,0.478234 1.54347,0 1.54347,0 0,0.374238 0,0.374238 -2.16238,0 -2.16236,0 0,-0.256551 z M 95.642175,26.592886 c -0.213077,-0.812182 -0.224784,-0.749509 0.172353,-0.925144 0.380695,-0.168393 0.81537,-0.608061 0.81537,-0.824751 0,-0.06973 -0.355557,-1.009427 -0.790145,-2.088078 -0.434588,-1.078652 -0.790143,-1.993197 -0.790143,-2.032343 0,-0.0396 0.325682,-0.06027 0.723682,-0.04734 l 0.723681,0.02411 0.43321,1.455446 c 0.238299,0.800474 0.451979,1.399306 0.474959,1.3307 0.0233,-0.06887 0.18105,-0.704827 0.35134,-1.413864 0.17029,-0.709047 0.3361,-1.318787 0.36856,-1.355066 0.0327,-0.03615 0.3608,-0.05511 0.72979,-0.04133 l 0.67091,0.02411 -0.68512,1.912873 c -1.1411,3.186006 -1.70241,4.019324 -2.863751,4.251597 -0.234513,0.04734 -0.255776,0.03013 -0.334724,-0.271015 z m -33.757896,0.07661 c -0.333432,-0.09824 -0.429078,-0.161505 -0.398775,-0.263609 0.02239,-0.07404 0.08179,-0.305366 0.13293,-0.514479 l 0.09307,-0.38018 0.430541,0.14877 c 1.081536,0.37372 1.791348,0.06801 1.935509,-0.833362 0.06198,-0.387753 0.02325,-0.412547 -0.276009,-0.177003 -0.858157,0.675042 -2.193842,0.186903 -2.567597,-0.938382 -0.185268,-0.557785 -0.128445,-1.550552 0.116055,-2.025664 0.530407,-1.031033 1.956333,-1.42434 2.649788,-0.730912 0.257757,0.257757 0.27773,0.254313 0.27773,-0.04734 l 0,-0.249491 0.575431,0 0.575433,0 -0.03702,1.933664 c -0.05854,3.063361 -0.100726,3.281463 -0.735392,3.765554 -0.589895,0.449911 -1.830855,0.589895 -2.771907,0.312595 z m 1.887734,-2.90037 c 0.349013,-0.293657 0.391715,-1.530364 0.06543,-1.909156 -0.233393,-0.271359 -0.725403,-0.304762 -0.987928,-0.06714 -0.978666,0.88573 -0.07748,2.817441 0.922068,1.976391 z m 50.073717,1.833177 0,-1.12669 -0.34127,0.274201 c -0.76397,0.613915 -2.0015,0.295034 -2.48196,-0.639571 -0.27842,-0.541684 -0.31105,-1.892435 -0.0577,-2.371317 0.57732,-1.089439 1.96734,-1.497864 2.64312,-0.776627 l 0.19577,0.208942 0.0421,-0.235976 c 0.0413,-0.232617 0.0517,-0.236318 0.68615,-0.260253 l 0.64395,-0.0241 0,3.039143 0,3.039142 -0.6653,0 -0.66531,0 0,-1.126691 z m -0.44518,-1.694908 c 0.54185,-0.330417 0.61426,-1.578117 0.11726,-2.022132 -0.64974,-0.580512 -1.41863,-0.04821 -1.41863,0.981954 0,0.918024 0.64981,1.437446 1.30137,1.040178 z m -45.777959,1.04126 c -1.739884,-0.568977 -1.876906,-3.323821 -0.205672,-4.135177 0.567512,-0.275492 1.419288,-0.269637 1.930358,0.0129 0.631994,0.349786 1.096612,1.413527 0.946115,2.166016 l -0.04906,0.243207 -1.361882,0 c -1.476865,0 -1.526368,0.01807 -1.198361,0.434931 0.257757,0.327748 0.590928,0.423138 1.313982,0.376218 0.353834,-0.02325 0.702243,-0.06628 0.774302,-0.09711 0.105374,-0.04478 0.1473,0.03444 0.214023,0.402303 l 0.08264,0.457746 -0.255605,0.09479 c -0.407985,0.151263 -1.779182,0.178639 -2.191601,0.04391 z m 1.478579,-2.671836 c 0,-0.0241 -0.05251,-0.171063 -0.117675,-0.325941 -0.254486,-0.609009 -1.032157,-0.636556 -1.336876,-0.04734 -0.207393,0.401012 -0.181135,0.417542 0.664452,0.417542 0.434587,0 0.790143,-0.0198 0.790143,-0.04391 z m 10.660738,2.630651 c -1.855116,-0.640691 -1.721837,-3.641067 0.18699,-4.21056 1.428362,-0.426151 2.54233,0.456025 2.54233,2.01324 l 0,0.525757 -1.372275,0 c -1.269215,0 -1.372274,0.01125 -1.372274,0.150658 0,0.539879 1.130538,0.869934 2.063317,0.602381 0.317935,-0.09117 0.347293,-0.05166 0.373032,0.501222 l 0.01722,0.366575 -0.374239,0.09771 c -0.578617,0.151088 -1.554752,0.128879 -2.064016,-0.04734 z m 1.481832,-2.79809 c 0,-0.58249 -0.805982,-0.824751 -1.253914,-0.376906 -0.463429,0.463342 -0.355901,0.588604 0.505439,0.588604 0.746496,0 0.748475,-5.85e-4 0.748475,-0.211698 z m 8.251818,2.81794 c -0.871818,-0.429679 -0.907674,-1.83268 -0.06025,-2.35644 0.367007,-0.226849 1.05099,-0.41384 1.518301,-0.41513 0.287803,-8.28e-4 0.353488,-0.02927 0.353488,-0.154448 0,-0.505183 -0.928567,-0.620198 -1.839445,-0.227883 -0.121485,0.05251 -0.322927,-0.42503 -0.322927,-0.765178 0,-0.280225 1.825818,-0.489083 2.434783,-0.278504 0.874083,0.302265 1.041038,0.733324 1.075189,2.776539 l 0.02497,1.476324 -0.602982,-8.7e-5 c -0.597128,-7.6e-5 -0.602982,-0.0022 -0.602982,-0.220909 0,-0.206791 -0.0096,-0.212213 -0.14859,-0.08636 -0.420555,0.380608 -1.317711,0.504148 -1.829306,0.251989 z m 1.607173,-0.966413 c 0.163574,-0.14076 0.232533,-0.294433 0.26628,-0.593943 l 0.04563,-0.404026 -0.423225,0.04047 c -0.585849,0.05597 -0.848512,0.242864 -0.848512,0.602552 0,0.534368 0.525414,0.728504 0.959974,0.354781 z m 25.988279,1.011904 c -0.7205,-0.287463 -0.8623,-0.707931 -0.90132,-2.672529 l -0.0327,-1.642573 0.67401,0 0.67401,0 0,1.237128 c 0,1.782231 0.10503,2.089601 0.71395,2.089601 0.62579,0 0.69993,-0.197837 0.69993,-1.867504 l 0,-1.459225 0.66531,0 0.66531,0 0,2.030819 c 0,1.116953 0.0232,2.091754 0.0517,2.16623 0.0456,0.1188 -0.0232,0.132405 -0.5614,0.110805 l -0.61332,-0.02497 -0.0438,-0.291074 c -0.0412,-0.276525 -0.0491,-0.282121 -0.14412,-0.112079 -0.234,0.417627 -1.27649,0.663073 -1.84795,0.435105 z m 7.47392,-0.07318 c -0.49657,-0.262406 -0.60264,-0.596267 -0.64095,-2.016949 l -0.0327,-1.226737 -0.28616,0 -0.28616,0 0.0249,-0.478236 c 0.0249,-0.472811 0.0285,-0.478494 0.2952,-0.504235 0.26001,-0.02497 0.27034,-0.04046 0.27034,-0.391541 l 0,-0.365459 0.57035,-0.169856 c 0.78773,-0.2346 0.76035,-0.247772 0.76035,0.366575 l 0,0.536432 0.47823,0.02496 0.47825,0.02497 0.0249,0.478236 0.0249,0.478234 -0.50311,0 -0.5032,0 0,0.979518 c 0,1.17466 0.0757,1.349193 0.58688,1.349193 l 0.32792,0 0,0.490116 c 0,0.572936 -0.0258,0.592737 -0.77612,0.5874 -0.33859,-0.0024 -0.6152,-0.05767 -0.81356,-0.16254 z m 3.66839,0.0885 c -2.33154,-0.709218 -1.77266,-4.413379 0.66591,-4.413379 1.1234,0 1.91286,0.915837 1.91286,2.219058 l 0,0.442335 -1.3584,0 c -1.50563,0 -1.51529,0.0025 -1.33572,0.349788 0.22185,0.428991 1.22129,0.630358 2.00841,0.40454 0.29754,-0.08523 0.33034,-0.0353 0.37406,0.568891 0.0198,0.274888 0.007,0.28694 -0.39532,0.393436 -0.44759,0.1182 -1.532,0.13869 -1.8718,0.0353 z m 1.33123,-2.797062 c 0,-0.551414 -0.68649,-0.893773 -1.14634,-0.571645 -0.16158,0.113204 -0.43389,0.524898 -0.43389,0.656185 0,0.02497 0.35555,0.04563 0.79014,0.04563 0.66161,0 0.79015,-0.02152 0.79007,-0.13017 z m 3.32618,2.80171 c -0.96412,-0.314748 -1.49649,-1.056481 -1.49649,-2.084951 0,-1.390818 0.93265,-2.273846 2.41189,-2.283565 0.91664,-0.006 1.02663,0.05166 0.95861,0.505526 -0.0882,0.588605 -0.08,0.581718 -0.62898,0.54203 -0.91487,-0.06628 -1.36192,0.313199 -1.36658,1.15969 -0.005,0.855744 0.57949,1.329882 1.45941,1.184361 l 0.47772,-0.0792 0.056,0.449223 c 0.0361,0.286683 0.0232,0.482025 -0.0344,0.539877 -0.10994,0.109935 -1.54524,0.162109 -1.83709,0.06714 z m 3.5827,-0.07231 c -0.5633,-0.287198 -0.62485,-0.463082 -0.67125,-1.918504 l -0.0412,-1.304132 -0.27032,-0.02583 -0.27032,-0.02583 0,-0.493733 0,-0.49373 0.28651,0 c 0.28203,0 0.28694,-0.0061 0.3119,-0.387926 l 0.0249,-0.387927 0.54057,-0.15238 c 0.29735,-0.08352 0.56862,-0.152555 0.60298,-0.152728 0.0344,-1.7e-4 0.0619,0.242951 0.0619,0.54031 l 0,0.540563 0.499,0 0.49897,0 0,0.494852 0,0.494851 -0.47823,0.02496 -0.47824,0.02497 0,1.006189 c 0,1.154782 0.0534,1.280939 0.5404,1.280939 0.33333,0 0.41607,0.148846 0.41607,0.749251 0,0.361669 -0.99865,0.479785 -1.57429,0.186301 z m 3.19607,0.04906 c -0.72911,-0.402218 -0.87327,-0.86921 -0.87327,-2.829114 l 0,-1.481939 0.6653,0 0.66532,0 0,1.376408 c 0,1.717139 0.0899,1.955368 0.73453,1.947681 0.57509,-0.0069 0.67935,-0.305451 0.67935,-1.946348 l 0,-1.377741 0.6653,0 0.66531,0 0,2.162377 0,2.162373 -0.58214,0 -0.58215,0 0,-0.30743 0,-0.307433 -0.27032,0.260685 c -0.43632,0.420813 -1.31485,0.590067 -1.76734,0.340403 z m 8.03165,-0.04391 c -0.47513,-0.250008 -0.62967,-0.538327 -0.62967,-1.174945 0,-0.944151 0.61719,-1.46507 1.85916,-1.569191 0.6406,-0.05339 0.72772,-0.141794 0.4326,-0.43691 -0.28986,-0.289954 -0.96361,-0.278333 -1.6746,0.0284 -0.1284,0.05511 -0.3261,-0.379663 -0.3261,-0.717742 0,-0.380437 1.8967,-0.569577 2.58587,-0.257843 0.7501,0.339285 0.89603,0.77878 0.92721,2.792845 l 0.0215,1.393177 -0.60298,-7.7e-5 c -0.58861,-8.7e-5 -0.60299,-0.0051 -0.60299,-0.209201 l 0,-0.209115 -0.34237,0.22659 c -0.44673,0.295638 -1.22067,0.358485 -1.64776,0.133785 z m 1.61185,-0.960931 c 0.14971,-0.131369 0.22876,-0.304848 0.26544,-0.582147 l 0.0525,-0.395073 -0.30502,0 c -0.68719,0 -1.14255,0.406523 -0.96839,0.864554 0.13186,0.346945 0.62286,0.404884 0.95574,0.112694 z m -95.597969,-1.933596 0,-2.952475 0.665312,0 0.665312,0 0,2.952475 0,2.952476 -0.665312,0 -0.665312,0 z m 2.494463,1.351491 c -3.36e-4,-0.880546 -0.02411,-1.853618 -0.05339,-2.162383 l -0.05339,-0.561399 0.584903,0 0.584988,0 0.05511,0.295636 0.05511,0.295638 0.277472,-0.243638 c 0.56381,-0.495024 1.476556,-0.519645 2.029089,-0.05511 0.452752,0.380952 0.537809,0.745203 0.577325,2.472379 l 0.0353,1.559411 -0.674351,0 -0.674352,0 -0.0019,-1.185147 c -0.0011,-0.651795 -0.03702,-1.334825 -0.0792,-1.517795 -0.145575,-0.628368 -0.661696,-0.808643 -1.089714,-0.380684 l -0.243121,0.24312 0,1.42026 0,1.420263 -0.665313,0 -0.665311,0 -5.85e-4,-1.600993 z m 14.887722,-0.561399 0,-2.162383 0.582147,0 0.582147,0 0,0.291075 c 0,0.160128 0.03788,0.291073 0.08352,0.291073 0.04563,0 0.08351,-0.03615 0.08351,-0.0792 0,-0.304332 1.073462,-0.631908 1.619794,-0.494335 0.929372,0.233996 1.124754,0.721873 1.124754,2.808411 l 0,1.508167 -0.665311,0 -0.665311,0 0,-1.368364 c 0,-0.839817 -0.03615,-1.448009 -0.09391,-1.574572 -0.1362,-0.298907 -0.503548,-0.432091 -0.824839,-0.298993 -0.432864,0.179326 -0.49511,0.419005 -0.49511,1.907114 l 0,1.334824 -0.665312,0 -0.66531,0 0,-2.162373 z m 5.15643,0 0,-2.162383 0.665313,0 0.665311,0 0,2.162383 0,2.162375 -0.665311,0 -0.665313,0 z m 7.069306,0 0,-2.162383 0.531698,0 c 0.588088,0 0.632682,0.0396 0.632682,0.559679 l 0,0.296582 0.187163,-0.274975 c 0.268603,-0.39464 0.554943,-0.579047 0.935646,-0.602465 l 0.332655,-0.02066 0.0241,0.639916 0.02411,0.639915 -0.273684,-0.04046 c -0.340834,-0.05079 -0.814335,0.1795 -0.95747,0.466095 -0.06887,0.137656 -0.104341,0.622439 -0.105106,1.434657 l -0.0012,1.226736 -0.665311,0 -0.665313,0 0,-2.162381 z m 3.326739,0 0,-2.162383 0.66531,0 0.665312,0 0,2.162383 0,2.162375 -0.665312,0 -0.66531,0 z m 14.887129,2.088689 c 0,-0.04045 0.29598,-1.041666 0.65773,-2.224757 0.36176,-1.183088 0.75743,-2.479782 0.87913,-2.881545 l 0.22135,-0.73048 0.87592,0.02325 0.87593,0.02325 0.86022,2.744556 c 0.47316,1.509503 0.88169,2.828763 0.9079,2.931685 0.0465,0.183114 0.0327,0.187161 -0.65696,0.187161 l -0.70464,0 -0.22462,-0.748561 -0.22461,-0.748562 -0.85807,0 -0.85807,0 -0.13335,0.478234 c -0.0731,0.26301 -0.1709,0.599884 -0.21669,0.748564 l -0.0835,0.270325 -0.65893,0 c -0.36236,0 -0.65886,-0.03272 -0.65886,-0.07404 z m 3.22239,-2.525326 c -0.0216,-0.05682 -0.16581,-0.580855 -0.32078,-1.16377 -0.15495,-0.582922 -0.30054,-1.059607 -0.32335,-1.059358 -0.0353,4.13e-4 -0.48555,1.732246 -0.56717,2.180995 -0.0233,0.12897 0.0483,0.1461 0.61185,0.1461 0.47608,0 0.62855,-0.02669 0.59945,-0.103995 z m 2.84889,0.436654 0,-2.162375 0.57784,0 0.57785,0 0.025,0.436655 0.025,0.436653 0.1807,-0.305794 c 0.23055,-0.390079 0.49906,-0.564327 0.90815,-0.589296 l 0.32499,-0.0198 0.0241,0.628206 0.0241,0.628208 -0.27351,-0.0284 c -0.81133,-0.08523 -1.05223,0.36847 -1.05891,1.995116 l -0.005,1.143564 -0.66531,0 -0.6653,0 0,-2.162374 z m 13.72278,0 0,-2.162375 0.66531,0 0.66532,0 0,2.162375 0,2.162383 -0.66532,0 -0.66531,0 z m 22.62179,0 0,-2.162375 0.53281,0 0.53282,0 0.0576,0.419781 0.0576,0.41978 0.14595,-0.272135 c 0.16899,-0.315093 0.77533,-0.669442 1.08397,-0.63337 0.20223,0.02325 0.20885,0.04391 0.20885,0.64818 0,0.601516 -0.007,0.622781 -0.18956,0.597298 -0.29487,-0.04133 -0.7472,0.141541 -0.93192,0.376389 -0.15152,0.192673 -0.16761,0.335756 -0.16761,1.491012 l 0,1.277892 -0.66531,0 -0.66531,0 z M 76.586319,20.052215 c -0.673748,-0.340749 -0.425031,-1.306242 0.336445,-1.306242 0.806328,0 1.062122,1.062628 0.318192,1.321944 -0.331536,0.115529 -0.398257,0.113985 -0.654722,-0.01549 z m 10.579478,-0.556579 0.357192,-0.664193 0.607888,-0.0012 c 0.69467,-0.0013 0.692518,-0.05339 0.03272,0.768103 l -0.451115,0.561399 -0.451721,0 -0.451719,0 0.357192,-0.664193 z m 34.497753,0.559936 c -0.27627,-0.144211 -0.44156,-0.504148 -0.37364,-0.813474 0.1708,-0.777662 1.45482,-0.607803 1.45482,0.192499 0,0.503891 -0.62156,0.86091 -1.08118,0.620975 z M 58.82988,15.943794 c -0.52791,-0.118545 -0.711887,-0.213075 -0.67349,-0.345913 0.02152,-0.07576 0.0792,-0.291333 0.127756,-0.478751 l 0.0879,-0.34075 0.436826,0.150917 c 0.58516,0.202143 0.936541,0.197236 1.149884,-0.01636 0.250266,-0.250265 0.0637,-0.483916 -0.58473,-0.731428 -2.297331,-0.877233 -0.780416,-3.315253 1.556,-2.500789 0.142996,0.04994 0.245445,0.134565 0.227624,0.18828 -0.01808,0.05339 -0.07146,0.250525 -0.119235,0.43743 l -0.08678,0.339801 -0.478666,-0.12096 c -1.087527,-0.274803 -1.343063,0.340577 -0.313027,0.753899 0.926323,0.371742 1.304306,0.885309 1.171726,1.592021 -0.15462,0.824064 -1.341575,1.332913 -2.501711,1.072367 z m 4.465818,-0.10116 c -1.727925,-0.596782 -1.831984,-3.219322 -0.16013,-4.03624 0.53824,-0.263008 1.309824,-0.353146 1.870697,-0.218585 0.453443,0.108824 0.435018,0.05595 0.262924,0.753209 l -0.07146,0.291076 -0.507335,-0.02842 c -0.83405,-0.04648 -1.261483,0.25216 -1.374944,0.96168 -0.141104,0.88227 0.592135,1.532309 1.530649,1.356977 0.465666,-0.08694 0.412805,-0.134476 0.479269,0.43097 l 0.05511,0.46713 -0.322497,0.08954 c -0.482971,0.13413 -1.265065,0.104249 -1.761673,-0.06714 z m 3.641797,0.0037 c -0.670563,-0.356318 -0.844812,-0.975527 -0.811752,-2.884639 l 0.02325,-1.327688 0.637503,-0.0241 0.637505,-0.02411 0.02754,1.41136 c 0.02497,1.278857 0.04391,1.43339 0.202486,1.645949 0.252248,0.33894 0.705689,0.36692 0.989117,0.06112 0.206016,-0.222288 0.2086,-0.242949 0.2086,-1.66835 l 0,-1.443299 0.66531,0 0.665312,0 0.0011,1.975248 c 6.62e-4,1.086382 0.02325,2.059451 0.05166,2.162374 0.04821,0.181049 0.03099,0.187161 -0.532817,0.187161 -0.614346,0 -0.683909,-0.04476 -0.683909,-0.438978 0,-0.160645 -0.0241,-0.152725 -0.275664,0.09136 -0.457831,0.443712 -1.259313,0.56665 -1.804812,0.276783 z m 5.490413,0.03186 c -1.748716,-0.567857 -1.883302,-3.251248 -0.20791,-4.145587 0.474448,-0.253279 1.442602,-0.250352 1.926657,0.0057 0.61004,0.322754 0.942644,0.994051 0.942644,1.902491 l 0,0.530148 -1.372273,0 c -1.273156,0 -1.372282,0.01125 -1.372282,0.151866 0,0.515255 1.047417,0.82854 2.017276,0.603325 0.362013,-0.08437 0.360378,-0.0861 0.435879,0.419091 0.05682,0.378629 0.05339,0.38569 -0.220652,0.486329 -0.438804,0.161076 -1.711842,0.188712 -2.1494,0.04649 z m 1.413855,-2.833773 c 0,-0.778178 -1.215544,-0.809515 -1.484391,-0.03875 l -0.08712,0.250007 0.785752,0 0.785753,0 0,-0.211695 z m 4.903762,2.769125 c -0.824578,-0.415819 -0.909293,-1.674616 -0.151176,-2.247363 0.348325,-0.263179 1.057003,-0.476428 1.583328,-0.476428 0.449479,0 0.506472,-0.100815 0.241398,-0.427442 -0.192843,-0.237612 -1.009556,-0.264901 -1.514247,-0.05079 l -0.301318,0.128025 -0.09375,-0.312855 c -0.152552,-0.509057 -0.128624,-0.559332 0.3429,-0.720667 1.016624,-0.347721 2.299924,-0.136021 2.703226,0.445951 0.28014,0.404198 0.300801,0.532731 0.348238,2.164398 l 0.04649,1.601139 -0.602982,-1.66e-4 c -0.587656,-1.63e-4 -0.60298,-0.0054 -0.60298,-0.208081 0,-0.251041 -0.08979,-0.264042 -0.290644,-0.04219 -0.326028,0.360292 -1.144889,0.430198 -1.708537,0.14601 z m 1.494257,-0.849373 c 0.276267,-0.14283 0.338596,-0.274888 0.338596,-0.716794 0,-0.315782 -0.0085,-0.325854 -0.28565,-0.325854 -0.781105,0 -1.198103,0.583525 -0.742536,1.039109 0.158064,0.158064 0.388529,0.159269 0.68959,0.0036 z m 5.321003,0.84464 c -0.956842,-0.500879 -1.326792,-1.947595 -0.807017,-3.155883 0.427355,-0.993414 1.636245,-1.417179 2.540451,-0.890533 l 0.270326,0.157459 0,-1.119975 0,-1.119968 0.665311,0 0.665312,0 0.0012,2.931684 c 8.25e-4,1.612434 0.0241,3.015898 0.05166,3.118812 0.04906,0.182082 0.03272,0.187162 -0.583352,0.187162 l -0.633458,0 0,-0.306656 0,-0.306657 -0.228745,0.219101 c -0.520249,0.498296 -1.312321,0.614864 -1.941379,0.285566 z m 1.760647,-1.132416 c 0.349616,-0.349616 0.365973,-1.427827 0.02754,-1.829718 -0.230982,-0.274545 -0.698543,-0.351252 -1.03682,-0.17029 -0.569922,0.305021 -0.581373,1.824063 -0.01635,2.153251 0.300286,0.17485 0.766813,0.105105 1.025216,-0.153243 z m 3.819344,1.201813 c -1.748715,-0.567814 -1.883293,-3.251201 -0.207911,-4.145542 0.474449,-0.25328 1.44261,-0.250353 1.926657,0.0057 0.610043,0.322756 0.942645,0.994042 0.942645,1.902492 l 0,0.530148 -1.372273,0 c -1.273157,0 -1.372274,0.01125 -1.372274,0.151865 0,0.515255 1.047409,0.82854 2.017268,0.603327 0.362013,-0.08437 0.360377,-0.08609 0.435879,0.419091 0.05682,0.378628 0.05339,0.385687 -0.220652,0.486328 -0.438805,0.161076 -1.711842,0.188712 -2.149399,0.04649 z m 1.413864,-2.833773 c 0,-0.778176 -1.215546,-0.809513 -1.484399,-0.03875 l -0.08713,0.250009 0.785752,0 0.785754,0 0,-0.211695 z m -38.839609,-0.0792 0,-2.952473 1.8297,0 1.829701,0 0,0.540564 0,0.540567 -1.164353,0 -1.164357,0 0,0.623729 0,0.62373 1.081192,0 1.081182,0 0,0.540565 0,0.540566 -1.081182,0 -1.081192,0 0,0.706893 0,0.706893 1.205946,0 1.205939,0 0,0.540567 0,0.540565 -1.871293,0 -1.871283,0 0,-2.952475 z m 22.205943,-0.166327 0,-3.11881 0.665312,0 0.665312,0 0,3.11881 0,3.118812 -0.665312,0 -0.665312,0 z" style="fill:#1b191d" sodipodi:nodetypes="ccccscssccsccccscccscccccccscccccccccccccccccscccsccsccccsccccccscccccccsccccsscccccccccscccccccccccccccccscccscccccccccscccccccscssccccccccscccccccccccccccccsscccccccccccsssccccscccsccccccccccsccscccccccccccccccccsccccccccccccsccccccsccccccccccsscccsscssccccccsssscccscsscccscccccccscccccccssscccsccccccccccccccscsscccccccsscsccccsscscccccccssccssccccccccccccccccsccccscccccccssscccscccssscccccccccccccscccsccccscccccccscccccccccccccccccccccccccccccccccccccccssscscccsccsccccccccccccccccssccccccccccccccccccccccccsccccccsccccccccscccsccscccccccccccccsccccccccccccccccccccccsccscccccscccccsccccccccsccccccccccccccccccsccccccccccccccccsccscccccssccccccscssccccccccccccccscccsccccssccccssccccccccccccscccccccccccccccscssccccccccccccccccccccccccccccccccccccccccccccccc"/>
</svg>